<?xml version="1.0" encoding="UTF-8"?>
<svg xmlns="http://www.w3.org/2000/svg" xmlns:xlink="http://www.w3.org/1999/xlink" width="854" height="480" viewBox="0 0 854 480">
<defs>
<g>
<g id="glyph-0-0">
<path d="M 1.878906 -1.574219 L 1.878906 -0.394531 C 2.078125 -0.402344 2.230469 -0.457031 2.34375 -0.5625 C 2.457031 -0.667969 2.511719 -0.808594 2.511719 -0.988281 C 2.511719 -1.15625 2.460938 -1.289062 2.359375 -1.382812 C 2.257812 -1.476562 2.097656 -1.539062 1.878906 -1.574219 Z M 1.605469 -2.089844 L 1.605469 -3.210938 C 1.417969 -3.203125 1.269531 -3.148438 1.164062 -3.046875 C 1.058594 -2.945312 1.007812 -2.808594 1.007812 -2.640625 C 1.007812 -2.484375 1.054688 -2.359375 1.152344 -2.269531 C 1.253906 -2.179688 1.402344 -2.121094 1.605469 -2.089844 Z M 1.878906 0.816406 L 1.605469 0.816406 L 1.601562 0 C 1.417969 -0.0078125 1.234375 -0.0351562 1.054688 -0.0742188 C 0.871094 -0.117188 0.691406 -0.175781 0.515625 -0.25 L 0.515625 -0.738281 C 0.695312 -0.625 0.878906 -0.539062 1.0625 -0.480469 C 1.246094 -0.421875 1.425781 -0.390625 1.605469 -0.386719 L 1.605469 -1.628906 C 1.242188 -1.683594 0.972656 -1.792969 0.789062 -1.957031 C 0.605469 -2.121094 0.515625 -2.339844 0.515625 -2.613281 C 0.515625 -2.898438 0.609375 -3.121094 0.800781 -3.292969 C 0.992188 -3.460938 1.261719 -3.558594 1.605469 -3.582031 L 1.605469 -4.222656 L 1.878906 -4.222656 L 1.878906 -3.582031 C 2.023438 -3.574219 2.167969 -3.554688 2.3125 -3.527344 C 2.460938 -3.5 2.609375 -3.464844 2.761719 -3.417969 L 2.761719 -2.949219 C 2.609375 -3.027344 2.457031 -3.085938 2.3125 -3.128906 C 2.167969 -3.171875 2.023438 -3.195312 1.878906 -3.203125 L 1.878906 -2.035156 C 2.25 -1.980469 2.535156 -1.863281 2.730469 -1.6875 C 2.925781 -1.511719 3.023438 -1.285156 3.023438 -1.007812 C 3.023438 -0.726562 2.917969 -0.496094 2.707031 -0.308594 C 2.496094 -0.121094 2.21875 -0.0234375 1.878906 -0.00390625 Z "/>
</g>
<g id="glyph-0-1">
<rect x="0" y="0" width="0" height="0" mask="url(#mask-0)"/>
</g>
<g id="glyph-0-2">
<path d="M 3.039062 -1.769531 L 3.039062 -1.523438 L 0.875 -1.523438 L 0.875 -1.507812 C 0.863281 -1.09375 0.941406 -0.796875 1.113281 -0.617188 C 1.285156 -0.433594 1.53125 -0.34375 1.84375 -0.34375 C 2.003906 -0.34375 2.171875 -0.371094 2.34375 -0.421875 C 2.515625 -0.472656 2.703125 -0.546875 2.898438 -0.652344 L 2.898438 -0.15625 C 2.710938 -0.078125 2.527344 -0.0195312 2.351562 0.0195312 C 2.175781 0.0585938 2.003906 0.078125 1.839844 0.078125 C 1.367188 0.078125 1 -0.0625 0.734375 -0.347656 C 0.46875 -0.628906 0.332031 -1.019531 0.332031 -1.515625 C 0.332031 -2 0.464844 -2.386719 0.722656 -2.675781 C 0.984375 -2.964844 1.332031 -3.113281 1.765625 -3.113281 C 2.152344 -3.113281 2.457031 -2.980469 2.679688 -2.71875 C 2.902344 -2.457031 3.023438 -2.140625 3.039062 -1.769531 Z M 2.539062 -1.914062 C 2.515625 -2.125 2.441406 -2.304688 2.308594 -2.460938 C 2.179688 -2.613281 1.992188 -2.6875 1.746094 -2.6875 C 1.503906 -2.6875 1.304688 -2.609375 1.148438 -2.449219 C 0.992188 -2.289062 0.910156 -2.113281 0.894531 -1.914062 Z "/>
</g>
<g id="glyph-0-3">
<path d="M 0.527344 -1.148438 L 0.527344 -3.03125 L 1.027344 -3.03125 L 1.027344 -1.148438 C 1.027344 -0.875 1.078125 -0.675781 1.171875 -0.546875 C 1.269531 -0.417969 1.417969 -0.355469 1.621094 -0.355469 C 1.855469 -0.355469 2.039062 -0.4375 2.160156 -0.605469 C 2.285156 -0.769531 2.347656 -1.007812 2.347656 -1.316406 L 2.347656 -3.03125 L 2.851562 -3.03125 L 2.851562 0 L 2.347656 0 L 2.347656 -0.457031 C 2.261719 -0.28125 2.140625 -0.148438 1.988281 -0.0585938 C 1.835938 0.03125 1.65625 0.078125 1.453125 0.078125 C 1.140625 0.078125 0.910156 -0.0234375 0.757812 -0.226562 C 0.605469 -0.429688 0.527344 -0.738281 0.527344 -1.148438 Z "/>
</g>
<g id="glyph-0-4">
<path d="M 0.269531 -3.039062 L 0.789062 -3.039062 L 1.671875 -0.488281 L 2.554688 -3.039062 L 3.074219 -3.039062 L 1.992188 0 L 1.351562 0 Z "/>
</g>
<g id="glyph-0-5">
<path d="M 2.640625 -2.933594 L 2.640625 -2.445312 C 2.496094 -2.527344 2.351562 -2.589844 2.207031 -2.632812 C 2.0625 -2.671875 1.917969 -2.695312 1.765625 -2.695312 C 1.539062 -2.695312 1.371094 -2.65625 1.261719 -2.582031 C 1.148438 -2.511719 1.09375 -2.398438 1.09375 -2.25 C 1.09375 -2.113281 1.136719 -2.011719 1.21875 -1.945312 C 1.300781 -1.878906 1.507812 -1.8125 1.839844 -1.75 L 2.039062 -1.710938 C 2.289062 -1.664062 2.476562 -1.570312 2.601562 -1.429688 C 2.730469 -1.289062 2.792969 -1.105469 2.792969 -0.878906 C 2.792969 -0.578125 2.6875 -0.34375 2.472656 -0.175781 C 2.261719 -0.0078125 1.964844 0.078125 1.585938 0.078125 C 1.433594 0.078125 1.277344 0.0625 1.113281 0.03125 C 0.949219 0 0.769531 -0.046875 0.578125 -0.109375 L 0.578125 -0.625 C 0.765625 -0.53125 0.941406 -0.457031 1.113281 -0.410156 C 1.28125 -0.363281 1.441406 -0.339844 1.59375 -0.339844 C 1.816406 -0.339844 1.988281 -0.382812 2.109375 -0.472656 C 2.230469 -0.5625 2.289062 -0.6875 2.289062 -0.847656 C 2.289062 -1.082031 2.066406 -1.242188 1.625 -1.328125 L 1.601562 -1.335938 L 1.417969 -1.371094 C 1.128906 -1.429688 0.917969 -1.523438 0.785156 -1.65625 C 0.652344 -1.789062 0.589844 -1.96875 0.589844 -2.199219 C 0.589844 -2.492188 0.6875 -2.714844 0.882812 -2.875 C 1.082031 -3.03125 1.363281 -3.113281 1.726562 -3.113281 C 1.890625 -3.113281 2.046875 -3.097656 2.199219 -3.066406 C 2.347656 -3.035156 2.496094 -2.992188 2.640625 -2.933594 Z "/>
</g>
<g id="glyph-0-6">
<path d="M 3.132812 -2.410156 C 3.027344 -2.496094 2.917969 -2.554688 2.808594 -2.59375 C 2.699219 -2.632812 2.578125 -2.648438 2.445312 -2.648438 C 2.132812 -2.648438 1.894531 -2.550781 1.730469 -2.355469 C 1.566406 -2.160156 1.484375 -1.878906 1.484375 -1.511719 L 1.484375 0 L 0.980469 0 L 0.980469 -3.039062 L 1.484375 -3.039062 L 1.484375 -2.445312 C 1.566406 -2.660156 1.695312 -2.824219 1.867188 -2.9375 C 2.039062 -3.054688 2.246094 -3.113281 2.480469 -3.113281 C 2.605469 -3.113281 2.71875 -3.097656 2.828125 -3.066406 C 2.933594 -3.035156 3.035156 -2.988281 3.132812 -2.921875 Z "/>
</g>
</g>
<image id="source-149" x="0" y="0" width="0" height="0"/>
<mask id="mask-0">
<use xlink:href="#source-149"/>
</mask>
</defs>
<g fill="rgb(22.352941%, 100%, 7.843137%)" fill-opacity="1">
<use xlink:href="#glyph-0-0" x="30" y="25.157227"/>
<use xlink:href="#glyph-0-1" x="33" y="25.157227"/>
<use xlink:href="#glyph-0-2" x="36" y="25.157227"/>
<use xlink:href="#glyph-0-3" x="39" y="25.157227"/>
<use xlink:href="#glyph-0-4" x="42" y="25.157227"/>
<use xlink:href="#glyph-0-1" x="45" y="25.157227"/>
<use xlink:href="#glyph-0-5" x="48" y="25.157227"/>
<use xlink:href="#glyph-0-2" x="51" y="25.157227"/>
<use xlink:href="#glyph-0-6" x="54" y="25.157227"/>
<use xlink:href="#glyph-0-4" x="57" y="25.157227"/>
<use xlink:href="#glyph-0-2" x="60" y="25.157227"/>
</g>
</svg>
