<?xml version="1.0" encoding="UTF-8"?>
<svg xmlns="http://www.w3.org/2000/svg" xmlns:xlink="http://www.w3.org/1999/xlink" width="854" height="480" viewBox="0 0 854 480">
<defs>
<g>
<g id="glyph-0-0">
<path d="M 0.828125 -0.316406 C 1.152344 -0.316406 1.375 -0.394531 1.503906 -0.554688 C 1.632812 -0.710938 1.695312 -1 1.695312 -1.414062 C 1.695312 -1.832031 1.632812 -2.121094 1.503906 -2.28125 C 1.378906 -2.441406 1.152344 -2.519531 0.828125 -2.519531 L 0.644531 -2.519531 L 0.644531 -0.316406 Z M 0.835938 -2.835938 C 1.269531 -2.835938 1.585938 -2.71875 1.792969 -2.488281 C 1.996094 -2.257812 2.101562 -1.902344 2.101562 -1.414062 C 2.101562 -0.929688 1.996094 -0.574219 1.792969 -0.34375 C 1.585938 -0.113281 1.269531 0 0.835938 0 L 0.261719 0 L 0.261719 -2.835938 Z "/>
</g>
<g id="glyph-0-1">
<path d="M 1.332031 -1.070312 L 1.21875 -1.070312 C 1.015625 -1.070312 0.859375 -1.035156 0.757812 -0.960938 C 0.652344 -0.890625 0.601562 -0.785156 0.601562 -0.640625 C 0.601562 -0.511719 0.640625 -0.414062 0.71875 -0.34375 C 0.796875 -0.273438 0.902344 -0.238281 1.039062 -0.238281 C 1.230469 -0.238281 1.382812 -0.304688 1.492188 -0.4375 C 1.601562 -0.570312 1.660156 -0.757812 1.660156 -0.992188 L 1.660156 -1.070312 Z M 2.011719 -1.214844 L 2.011719 0 L 1.660156 0 L 1.660156 -0.316406 C 1.585938 -0.1875 1.492188 -0.09375 1.378906 -0.0351562 C 1.265625 0.0234375 1.125 0.0546875 0.964844 0.0546875 C 0.75 0.0546875 0.574219 -0.0078125 0.445312 -0.128906 C 0.316406 -0.25 0.253906 -0.414062 0.253906 -0.621094 C 0.253906 -0.855469 0.332031 -1.035156 0.492188 -1.160156 C 0.648438 -1.28125 0.882812 -1.34375 1.191406 -1.34375 L 1.660156 -1.34375 L 1.660156 -1.398438 C 1.660156 -1.566406 1.617188 -1.691406 1.53125 -1.765625 C 1.445312 -1.84375 1.308594 -1.882812 1.125 -1.882812 C 1.003906 -1.882812 0.886719 -1.863281 0.761719 -1.832031 C 0.640625 -1.796875 0.523438 -1.746094 0.410156 -1.679688 L 0.410156 -2.03125 C 0.539062 -2.078125 0.660156 -2.117188 0.78125 -2.140625 C 0.898438 -2.164062 1.011719 -2.179688 1.125 -2.179688 C 1.300781 -2.179688 1.449219 -2.152344 1.574219 -2.101562 C 1.699219 -2.050781 1.800781 -1.972656 1.878906 -1.867188 C 1.925781 -1.804688 1.960938 -1.726562 1.980469 -1.632812 C 2 -1.539062 2.011719 -1.398438 2.011719 -1.214844 Z "/>
</g>
<g id="glyph-0-2">
<path d="M 2.195312 -1.6875 C 2.121094 -1.746094 2.042969 -1.789062 1.964844 -1.816406 C 1.886719 -1.84375 1.804688 -1.855469 1.710938 -1.855469 C 1.492188 -1.855469 1.328125 -1.789062 1.210938 -1.652344 C 1.097656 -1.515625 1.039062 -1.316406 1.039062 -1.058594 L 1.039062 0 L 0.6875 0 L 0.6875 -2.128906 L 1.039062 -2.128906 L 1.039062 -1.710938 C 1.097656 -1.863281 1.1875 -1.976562 1.308594 -2.058594 C 1.429688 -2.136719 1.570312 -2.179688 1.738281 -2.179688 C 1.824219 -2.179688 1.90625 -2.167969 1.980469 -2.144531 C 2.054688 -2.125 2.125 -2.089844 2.195312 -2.046875 Z "/>
</g>
<g id="glyph-0-3">
<path d="M 0.449219 -2.957031 L 0.808594 -2.957031 L 0.808594 -1.242188 L 1.726562 -2.128906 L 2.152344 -2.128906 L 1.3125 -1.324219 L 2.28125 0 L 1.855469 0 L 1.070312 -1.097656 L 0.808594 -0.851562 L 0.808594 0 L 0.449219 0 Z "/>
</g>
</g>
</defs>
<g fill="rgb(33.333333%, 33.333333%, 33.333333%)" fill-opacity="1">
<use xlink:href="#glyph-0-0" x="30" y="23.610352"/>
<use xlink:href="#glyph-0-1" x="32" y="23.610352"/>
<use xlink:href="#glyph-0-2" x="34" y="23.610352"/>
<use xlink:href="#glyph-0-3" x="36" y="23.610352"/>
</g>
</svg>
