<?xml version="1.0" encoding="UTF-8"?>
<svg xmlns="http://www.w3.org/2000/svg" xmlns:xlink="http://www.w3.org/1999/xlink" width="854" height="480" viewBox="0 0 854 480">
<defs>
<g>
<g id="glyph-0-0">
<path d="M 1.503906 -2.417969 C 1.277344 -2.417969 1.101562 -2.332031 0.984375 -2.152344 C 0.867188 -1.976562 0.8125 -1.714844 0.8125 -1.363281 C 0.8125 -1.015625 0.867188 -0.753906 0.984375 -0.578125 C 1.101562 -0.398438 1.277344 -0.308594 1.503906 -0.308594 C 1.734375 -0.308594 1.90625 -0.398438 2.023438 -0.578125 C 2.140625 -0.757812 2.199219 -1.019531 2.199219 -1.363281 C 2.199219 -1.710938 2.140625 -1.976562 2.023438 -2.152344 C 1.90625 -2.332031 1.734375 -2.417969 1.503906 -2.417969 Z M 1.503906 -2.800781 C 1.882812 -2.800781 2.171875 -2.675781 2.375 -2.429688 C 2.574219 -2.183594 2.675781 -1.832031 2.675781 -1.363281 C 2.675781 -0.898438 2.574219 -0.542969 2.375 -0.296875 C 2.175781 -0.0507812 1.882812 0.0703125 1.503906 0.0703125 C 1.125 0.0703125 0.835938 -0.0507812 0.632812 -0.296875 C 0.433594 -0.542969 0.335938 -0.898438 0.335938 -1.363281 C 0.335938 -1.828125 0.433594 -2.1875 0.632812 -2.429688 C 0.835938 -2.675781 1.125 -2.800781 1.503906 -2.800781 Z "/>
</g>
<g id="glyph-0-1">
<path d="M 0.914062 -0.34375 L 0.914062 1.039062 L 0.464844 1.039062 L 0.464844 -2.734375 L 0.914062 -2.734375 L 0.914062 -2.386719 C 0.988281 -2.519531 1.089844 -2.625 1.214844 -2.695312 C 1.339844 -2.765625 1.484375 -2.800781 1.644531 -2.800781 C 1.976562 -2.800781 2.234375 -2.671875 2.421875 -2.417969 C 2.609375 -2.160156 2.703125 -1.808594 2.703125 -1.355469 C 2.703125 -0.910156 2.609375 -0.5625 2.421875 -0.308594 C 2.234375 -0.0546875 1.972656 0.0703125 1.644531 0.0703125 C 1.480469 0.0703125 1.335938 0.0351562 1.210938 -0.0351562 C 1.085938 -0.105469 0.988281 -0.210938 0.914062 -0.34375 Z M 2.234375 -1.363281 C 2.234375 -1.710938 2.179688 -1.976562 2.070312 -2.152344 C 1.960938 -2.332031 1.796875 -2.417969 1.578125 -2.417969 C 1.359375 -2.417969 1.195312 -2.332031 1.085938 -2.152344 C 0.972656 -1.972656 0.914062 -1.710938 0.914062 -1.363281 C 0.914062 -1.019531 0.972656 -0.757812 1.085938 -0.578125 C 1.195312 -0.398438 1.363281 -0.308594 1.578125 -0.308594 C 1.796875 -0.308594 1.960938 -0.398438 2.070312 -0.578125 C 2.179688 -0.753906 2.234375 -1.015625 2.234375 -1.363281 Z "/>
</g>
<g id="glyph-0-2">
<path d="M 1.5 -3.511719 L 1.5 -2.734375 L 2.519531 -2.734375 L 2.519531 -2.386719 L 1.5 -2.386719 L 1.5 -0.902344 C 1.5 -0.699219 1.539062 -0.558594 1.613281 -0.476562 C 1.691406 -0.398438 1.824219 -0.359375 2.015625 -0.359375 L 2.519531 -0.359375 L 2.519531 0 L 1.96875 0 C 1.632812 0 1.394531 -0.0664062 1.257812 -0.203125 C 1.117188 -0.335938 1.050781 -0.570312 1.050781 -0.902344 L 1.050781 -2.386719 L 0.320312 -2.386719 L 0.320312 -2.734375 L 1.050781 -2.734375 L 1.050781 -3.511719 Z "/>
</g>
<g id="glyph-0-3">
<path d="M 0.773438 -2.726562 L 1.921875 -2.726562 L 1.921875 -0.347656 L 2.8125 -0.347656 L 2.8125 0 L 0.582031 0 L 0.582031 -0.347656 L 1.472656 -0.347656 L 1.472656 -2.375 L 0.773438 -2.375 Z M 1.472656 -3.785156 L 1.921875 -3.785156 L 1.921875 -3.21875 L 1.472656 -3.21875 Z "/>
</g>
<g id="glyph-0-4">
<path d="M 2.589844 -0.140625 C 2.46875 -0.0703125 2.347656 -0.015625 2.21875 0.0195312 C 2.089844 0.0546875 1.960938 0.0703125 1.828125 0.0703125 C 1.402344 0.0703125 1.070312 -0.0546875 0.832031 -0.308594 C 0.59375 -0.5625 0.476562 -0.914062 0.476562 -1.363281 C 0.476562 -1.8125 0.59375 -2.164062 0.832031 -2.417969 C 1.070312 -2.671875 1.402344 -2.800781 1.828125 -2.800781 C 1.957031 -2.800781 2.085938 -2.78125 2.210938 -2.75 C 2.335938 -2.714844 2.464844 -2.660156 2.589844 -2.589844 L 2.589844 -2.117188 C 2.472656 -2.222656 2.351562 -2.300781 2.234375 -2.347656 C 2.113281 -2.394531 1.976562 -2.417969 1.828125 -2.417969 C 1.546875 -2.417969 1.328125 -2.328125 1.175781 -2.144531 C 1.023438 -1.964844 0.949219 -1.703125 0.949219 -1.363281 C 0.949219 -1.027344 1.027344 -0.769531 1.179688 -0.585938 C 1.332031 -0.402344 1.546875 -0.308594 1.828125 -0.308594 C 1.984375 -0.308594 2.121094 -0.335938 2.246094 -0.382812 C 2.371094 -0.429688 2.484375 -0.503906 2.589844 -0.605469 Z "/>
</g>
<g id="glyph-0-5">
<path d="M 2.375 -2.640625 L 2.375 -2.199219 C 2.246094 -2.273438 2.117188 -2.332031 1.988281 -2.367188 C 1.859375 -2.40625 1.722656 -2.425781 1.589844 -2.425781 C 1.386719 -2.425781 1.234375 -2.390625 1.132812 -2.324219 C 1.035156 -2.257812 0.984375 -2.160156 0.984375 -2.023438 C 0.984375 -1.902344 1.019531 -1.8125 1.097656 -1.75 C 1.171875 -1.691406 1.359375 -1.632812 1.65625 -1.574219 L 1.835938 -1.539062 C 2.058594 -1.496094 2.226562 -1.414062 2.34375 -1.285156 C 2.457031 -1.160156 2.515625 -0.996094 2.515625 -0.789062 C 2.515625 -0.519531 2.417969 -0.308594 2.226562 -0.15625 C 2.035156 -0.00390625 1.765625 0.0703125 1.425781 0.0703125 C 1.289062 0.0703125 1.148438 0.0546875 1 0.0273438 C 0.851562 0 0.691406 -0.0429688 0.519531 -0.101562 L 0.519531 -0.5625 C 0.6875 -0.476562 0.847656 -0.414062 1 -0.371094 C 1.152344 -0.328125 1.296875 -0.304688 1.4375 -0.304688 C 1.632812 -0.304688 1.789062 -0.34375 1.898438 -0.425781 C 2.007812 -0.507812 2.0625 -0.621094 2.0625 -0.765625 C 2.0625 -0.972656 1.859375 -1.117188 1.460938 -1.195312 L 1.441406 -1.203125 L 1.273438 -1.234375 C 1.015625 -1.285156 0.828125 -1.371094 0.707031 -1.492188 C 0.589844 -1.609375 0.53125 -1.773438 0.53125 -1.980469 C 0.53125 -2.242188 0.617188 -2.445312 0.796875 -2.585938 C 0.972656 -2.730469 1.226562 -2.800781 1.554688 -2.800781 C 1.703125 -2.800781 1.84375 -2.785156 1.976562 -2.761719 C 2.113281 -2.734375 2.246094 -2.691406 2.375 -2.640625 Z "/>
</g>
</g>
</defs>
<g fill="rgb(0%, 96.078431%, 100%)" fill-opacity="1">
<use xlink:href="#glyph-0-0" x="30" y="24.641602"/>
<use xlink:href="#glyph-0-1" x="33" y="24.641602"/>
<use xlink:href="#glyph-0-2" x="36" y="24.641602"/>
<use xlink:href="#glyph-0-3" x="39" y="24.641602"/>
<use xlink:href="#glyph-0-4" x="42" y="24.641602"/>
<use xlink:href="#glyph-0-5" x="45" y="24.641602"/>
</g>
</svg>
